<mxfile host="app.diagrams.net" modified="2021-05-15T04:14:13.619Z" agent="5.0 (Windows NT 10.0; Win64; x64) AppleWebKit/537.36 (KHTML, like Gecko) Chrome/90.0.4430.93 Safari/537.36 Edg/90.0.818.56" etag="h-HXZln0uUh9Ap39-GAX" version="14.6.13" type="github">
  <diagram id="gOOSNL-5Rv7W689GlMHx" name="Page-1">
    <mxGraphModel dx="1303" dy="845" grid="1" gridSize="10" guides="1" tooltips="1" connect="1" arrows="1" fold="1" page="1" pageScale="1" pageWidth="827" pageHeight="1169" math="0" shadow="0">
      <root>
        <mxCell id="0" />
        <mxCell id="1" parent="0" />
        <mxCell id="UdT5KeWnAl_WwANaSQNZ-24" value="" style="edgeStyle=orthogonalEdgeStyle;rounded=0;orthogonalLoop=1;jettySize=auto;html=1;" edge="1" parent="1" source="UdT5KeWnAl_WwANaSQNZ-8" target="UdT5KeWnAl_WwANaSQNZ-11">
          <mxGeometry relative="1" as="geometry" />
        </mxCell>
        <mxCell id="UdT5KeWnAl_WwANaSQNZ-25" style="edgeStyle=orthogonalEdgeStyle;rounded=0;orthogonalLoop=1;jettySize=auto;html=1;entryX=0.5;entryY=0;entryDx=0;entryDy=0;" edge="1" parent="1" source="UdT5KeWnAl_WwANaSQNZ-8" target="UdT5KeWnAl_WwANaSQNZ-10">
          <mxGeometry relative="1" as="geometry" />
        </mxCell>
        <mxCell id="UdT5KeWnAl_WwANaSQNZ-27" style="edgeStyle=orthogonalEdgeStyle;rounded=0;orthogonalLoop=1;jettySize=auto;html=1;entryX=0.5;entryY=0;entryDx=0;entryDy=0;" edge="1" parent="1" source="UdT5KeWnAl_WwANaSQNZ-8" target="UdT5KeWnAl_WwANaSQNZ-9">
          <mxGeometry relative="1" as="geometry">
            <Array as="points">
              <mxPoint x="535" y="160" />
              <mxPoint x="115" y="160" />
            </Array>
          </mxGeometry>
        </mxCell>
        <mxCell id="UdT5KeWnAl_WwANaSQNZ-28" style="edgeStyle=orthogonalEdgeStyle;rounded=0;orthogonalLoop=1;jettySize=auto;html=1;" edge="1" parent="1" source="UdT5KeWnAl_WwANaSQNZ-8" target="UdT5KeWnAl_WwANaSQNZ-12">
          <mxGeometry relative="1" as="geometry" />
        </mxCell>
        <mxCell id="UdT5KeWnAl_WwANaSQNZ-29" style="edgeStyle=orthogonalEdgeStyle;rounded=0;orthogonalLoop=1;jettySize=auto;html=1;entryX=0.5;entryY=0;entryDx=0;entryDy=0;" edge="1" parent="1" source="UdT5KeWnAl_WwANaSQNZ-8" target="UdT5KeWnAl_WwANaSQNZ-13">
          <mxGeometry relative="1" as="geometry">
            <Array as="points">
              <mxPoint x="535" y="160" />
              <mxPoint x="955" y="160" />
            </Array>
          </mxGeometry>
        </mxCell>
        <mxCell id="UdT5KeWnAl_WwANaSQNZ-8" value="&lt;font style=&quot;font-size: 14px&quot;&gt;QUẢN LÝ HOẠT ĐỘNG&lt;br&gt;WEBSITE BÁN HÀNG&lt;/font&gt;" style="rounded=0;whiteSpace=wrap;html=1;strokeColor=#000000;fillColor=none;perimeterSpacing=0;" vertex="1" parent="1">
          <mxGeometry x="395" y="50" width="280" height="70" as="geometry" />
        </mxCell>
        <mxCell id="UdT5KeWnAl_WwANaSQNZ-31" style="edgeStyle=orthogonalEdgeStyle;rounded=0;orthogonalLoop=1;jettySize=auto;html=1;entryX=0;entryY=0.5;entryDx=0;entryDy=0;" edge="1" parent="1" source="UdT5KeWnAl_WwANaSQNZ-9" target="UdT5KeWnAl_WwANaSQNZ-14">
          <mxGeometry relative="1" as="geometry">
            <Array as="points">
              <mxPoint x="20" y="230" />
              <mxPoint x="20" y="360" />
            </Array>
          </mxGeometry>
        </mxCell>
        <mxCell id="UdT5KeWnAl_WwANaSQNZ-33" style="edgeStyle=orthogonalEdgeStyle;rounded=0;orthogonalLoop=1;jettySize=auto;html=1;entryX=0;entryY=0.5;entryDx=0;entryDy=0;" edge="1" parent="1" source="UdT5KeWnAl_WwANaSQNZ-9" target="UdT5KeWnAl_WwANaSQNZ-21">
          <mxGeometry relative="1" as="geometry">
            <Array as="points">
              <mxPoint x="20" y="230" />
              <mxPoint x="20" y="460" />
            </Array>
          </mxGeometry>
        </mxCell>
        <mxCell id="UdT5KeWnAl_WwANaSQNZ-34" style="edgeStyle=orthogonalEdgeStyle;rounded=0;orthogonalLoop=1;jettySize=auto;html=1;entryX=0;entryY=0.5;entryDx=0;entryDy=0;" edge="1" parent="1" source="UdT5KeWnAl_WwANaSQNZ-9" target="UdT5KeWnAl_WwANaSQNZ-15">
          <mxGeometry relative="1" as="geometry">
            <Array as="points">
              <mxPoint x="20" y="230" />
              <mxPoint x="20" y="560" />
            </Array>
          </mxGeometry>
        </mxCell>
        <mxCell id="UdT5KeWnAl_WwANaSQNZ-35" style="edgeStyle=orthogonalEdgeStyle;rounded=0;orthogonalLoop=1;jettySize=auto;html=1;entryX=0;entryY=0.5;entryDx=0;entryDy=0;" edge="1" parent="1" source="UdT5KeWnAl_WwANaSQNZ-9" target="UdT5KeWnAl_WwANaSQNZ-16">
          <mxGeometry relative="1" as="geometry">
            <Array as="points">
              <mxPoint x="20" y="230" />
              <mxPoint x="20" y="660" />
            </Array>
          </mxGeometry>
        </mxCell>
        <mxCell id="UdT5KeWnAl_WwANaSQNZ-9" value="&lt;span style=&quot;font-size: 14px&quot;&gt;Đặt hàng&lt;/span&gt;" style="rounded=0;whiteSpace=wrap;html=1;strokeColor=#000000;fillColor=none;" vertex="1" parent="1">
          <mxGeometry x="40" y="200" width="150" height="60" as="geometry" />
        </mxCell>
        <mxCell id="UdT5KeWnAl_WwANaSQNZ-36" style="edgeStyle=orthogonalEdgeStyle;rounded=0;orthogonalLoop=1;jettySize=auto;html=1;entryX=0.5;entryY=0;entryDx=0;entryDy=0;" edge="1" parent="1" source="UdT5KeWnAl_WwANaSQNZ-10" target="UdT5KeWnAl_WwANaSQNZ-17">
          <mxGeometry relative="1" as="geometry" />
        </mxCell>
        <mxCell id="UdT5KeWnAl_WwANaSQNZ-10" value="&lt;font style=&quot;font-size: 14px&quot;&gt;Xử lý đơn hàng&lt;/font&gt;" style="rounded=0;whiteSpace=wrap;html=1;strokeColor=#000000;fillColor=none;" vertex="1" parent="1">
          <mxGeometry x="250" y="200" width="150" height="60" as="geometry" />
        </mxCell>
        <mxCell id="UdT5KeWnAl_WwANaSQNZ-37" style="edgeStyle=orthogonalEdgeStyle;rounded=0;orthogonalLoop=1;jettySize=auto;html=1;entryX=0.5;entryY=0;entryDx=0;entryDy=0;" edge="1" parent="1" source="UdT5KeWnAl_WwANaSQNZ-11" target="UdT5KeWnAl_WwANaSQNZ-18">
          <mxGeometry relative="1" as="geometry" />
        </mxCell>
        <mxCell id="UdT5KeWnAl_WwANaSQNZ-11" value="&lt;font style=&quot;font-size: 14px&quot;&gt;Quản lý danh mục&amp;nbsp;&lt;/font&gt;" style="rounded=0;whiteSpace=wrap;html=1;strokeColor=#000000;fillColor=none;" vertex="1" parent="1">
          <mxGeometry x="460" y="200" width="150" height="60" as="geometry" />
        </mxCell>
        <mxCell id="UdT5KeWnAl_WwANaSQNZ-38" style="edgeStyle=orthogonalEdgeStyle;rounded=0;orthogonalLoop=1;jettySize=auto;html=1;entryX=0.5;entryY=0;entryDx=0;entryDy=0;" edge="1" parent="1" source="UdT5KeWnAl_WwANaSQNZ-12" target="UdT5KeWnAl_WwANaSQNZ-19">
          <mxGeometry relative="1" as="geometry" />
        </mxCell>
        <mxCell id="UdT5KeWnAl_WwANaSQNZ-12" value="&lt;font style=&quot;font-size: 14px&quot;&gt;Quản lý sản phẩm&lt;/font&gt;" style="rounded=0;whiteSpace=wrap;html=1;strokeColor=#000000;fillColor=none;" vertex="1" parent="1">
          <mxGeometry x="670" y="200" width="150" height="60" as="geometry" />
        </mxCell>
        <mxCell id="UdT5KeWnAl_WwANaSQNZ-39" style="edgeStyle=orthogonalEdgeStyle;rounded=0;orthogonalLoop=1;jettySize=auto;html=1;entryX=0.5;entryY=0;entryDx=0;entryDy=0;" edge="1" parent="1" source="UdT5KeWnAl_WwANaSQNZ-13" target="UdT5KeWnAl_WwANaSQNZ-20">
          <mxGeometry relative="1" as="geometry" />
        </mxCell>
        <mxCell id="UdT5KeWnAl_WwANaSQNZ-13" value="&lt;font style=&quot;font-size: 14px&quot;&gt;Quản lý tài khoản&lt;/font&gt;" style="rounded=0;whiteSpace=wrap;html=1;strokeColor=#000000;fillColor=none;" vertex="1" parent="1">
          <mxGeometry x="880" y="200" width="150" height="60" as="geometry" />
        </mxCell>
        <mxCell id="UdT5KeWnAl_WwANaSQNZ-14" value="&lt;font style=&quot;font-size: 14px&quot;&gt;Đăng nhập&lt;/font&gt;" style="rounded=0;whiteSpace=wrap;html=1;strokeColor=#000000;fillColor=none;" vertex="1" parent="1">
          <mxGeometry x="70" y="330" width="120" height="60" as="geometry" />
        </mxCell>
        <mxCell id="UdT5KeWnAl_WwANaSQNZ-15" value="&lt;font style=&quot;font-size: 14px&quot;&gt;Mua hàng&lt;/font&gt;" style="rounded=0;whiteSpace=wrap;html=1;strokeColor=#000000;fillColor=none;" vertex="1" parent="1">
          <mxGeometry x="70" y="530" width="120" height="60" as="geometry" />
        </mxCell>
        <mxCell id="UdT5KeWnAl_WwANaSQNZ-16" value="&lt;font style=&quot;font-size: 14px&quot;&gt;Đơn đã mua&lt;/font&gt;" style="rounded=0;whiteSpace=wrap;html=1;strokeColor=#000000;fillColor=none;" vertex="1" parent="1">
          <mxGeometry x="70" y="630" width="120" height="60" as="geometry" />
        </mxCell>
        <mxCell id="UdT5KeWnAl_WwANaSQNZ-17" value="&lt;font style=&quot;font-size: 14px&quot;&gt;Xác nhận đơn hàng&lt;/font&gt;" style="rounded=0;whiteSpace=wrap;html=1;strokeColor=#000000;fillColor=none;" vertex="1" parent="1">
          <mxGeometry x="250" y="330" width="150" height="60" as="geometry" />
        </mxCell>
        <mxCell id="UdT5KeWnAl_WwANaSQNZ-18" value="&lt;font style=&quot;font-size: 14px&quot;&gt;Thêm, sửa&lt;/font&gt;" style="rounded=0;whiteSpace=wrap;html=1;strokeColor=#000000;fillColor=none;" vertex="1" parent="1">
          <mxGeometry x="460" y="330" width="150" height="60" as="geometry" />
        </mxCell>
        <mxCell id="UdT5KeWnAl_WwANaSQNZ-19" value="&lt;font style=&quot;font-size: 14px&quot;&gt;Thêm, sửa, ngưng bán&lt;/font&gt;" style="rounded=0;whiteSpace=wrap;html=1;strokeColor=#000000;fillColor=none;" vertex="1" parent="1">
          <mxGeometry x="670" y="330" width="150" height="60" as="geometry" />
        </mxCell>
        <mxCell id="UdT5KeWnAl_WwANaSQNZ-20" value="&lt;font style=&quot;font-size: 14px&quot;&gt;Khóa, mở tài khoản&lt;/font&gt;" style="rounded=0;whiteSpace=wrap;html=1;strokeColor=#000000;fillColor=none;" vertex="1" parent="1">
          <mxGeometry x="880" y="330" width="150" height="60" as="geometry" />
        </mxCell>
        <mxCell id="UdT5KeWnAl_WwANaSQNZ-21" value="&lt;font style=&quot;font-size: 14px&quot;&gt;Tài khoản hợp lệ&lt;/font&gt;" style="rounded=0;whiteSpace=wrap;html=1;strokeColor=#000000;fillColor=none;" vertex="1" parent="1">
          <mxGeometry x="70" y="430" width="120" height="60" as="geometry" />
        </mxCell>
      </root>
    </mxGraphModel>
  </diagram>
</mxfile>
